<?xml version="1.0" encoding="utf-8"?>
<!-- Generator: Adobe Illustrator 27.0.0, SVG Export Plug-In . SVG Version: 6.00 Build 0)  -->
<svg version="1.1" id="zuledu" xmlns="http://www.w3.org/2000/svg" xmlns:xlink="http://www.w3.org/1999/xlink" x="0px" y="0px"
	 viewBox="0 0 100 100" style="enable-background:new 0 0 100 100;" xml:space="preserve">
<style type="text/css">
	.st0{fill:#004E89;}
	.st1{fill:#FF6B35;}
</style>
<g>
	<path class="st0" d="M43.5,74.8H10.7l16.7-24.6H12.1v-7.7h31.4L26.9,67h16.7V74.8z"/>
	<polygon class="st1" points="71.8,68.3 71.8,74.8 47.4,74.8 47.4,54.8 70.7,54.8 70.7,61.4 57.2,61.4 57.2,68.3 	"/>
	<path class="st1" d="M88.8,68c-1.6-2.3-3.1-4.7-3.7-7.4c-0.5-2.2-0.8-4.4-1.1-6.7c-0.4-3.5-1.8-6.5-4.1-9.1
		c-0.1-0.2-0.3-0.3-0.5-0.6c1.3-0.5,2.4-0.9,3.6-1.3c1.4-0.5,2.8-1,4.1-1.5c1.3-0.5,2-1.4,2-2.6c0-1.2-0.7-2-2-2.5
		c-9.7-3.5-19.4-7-29.1-10.5c-1.9-0.7-3.8-0.7-5.7,0c-9.7,3.5-19.3,7-29,10.5c-1.3,0.5-2.1,1.4-2.1,2.5v0h10.2c0,0,0,0-0.1,0
		c0.3-0.1,0.4-0.2,0.5-0.2c7.4-2.7,14.9-5.4,22.3-8c0.7-0.2,1.5-0.2,2.2,0.1c7.3,2.6,14.6,5.2,21.8,7.8c0.2,0.1,0.5,0.2,0.9,0.4
		c-1.6,0.6-2.9,1.1-4.2,1.5c-0.3,0.1-0.8,0.1-1.1,0c-4-1.5-7.9-3-11.9-4.5c-1.9-0.7-3.8-1.4-5.7-2.1c-1.3-0.5-2.1-0.2-2.5,0.8
		c-0.4,0.9,0.2,1.9,1.3,2.4c0.3,0.1,0.5,0.2,0.8,0.3c4.5,1.7,9.1,3.4,13.7,5.2c-0.2,0.1-0.3,0.2-0.4,0.2c-4.3,1.5-8.6,3.1-12.9,4.6
		c-0.7,0.2-1.5,0.2-2.2-0.1c-2.6-0.9-5.2-1.9-7.8-2.8l-2.9,4.3c3,1.1,6,2.2,9,3.3c2,0.7,3.9,0.7,5.8,0c2.6-0.9,5.1-1.9,7.7-2.8
		c3-1.1,6-2.2,9-3.2c0.6-0.2,1.1-0.2,1.6,0.3c2.5,2.4,4,5.3,4.2,8.8c0,0.4,0,0.9-0.2,1.2c-2,4.8-2.2,9.8-1.5,14.9
		c0.2,1.3,1.1,1.9,2.4,1.6c2.1-0.5,4.1-1,6.2-1.5C89.3,70.6,89.7,69.4,88.8,68z"/>
</g>
<path class="st0" d="M0,7.4v85.1c0,4.1,3.3,7.4,7.4,7.4h85.1c4.1,0,7.4-3.3,7.4-7.4V7.4c0-4.1-3.3-7.4-7.4-7.4H7.4
	C3.3,0,0,3.3,0,7.4z M86.7,94.5H13.3c-4.3,0-7.7-3.5-7.7-7.7V13.3C5.5,9,9,5.5,13.3,5.5h73.5c4.3,0,7.7,3.5,7.7,7.7v73.5
	C94.5,91,91,94.5,86.7,94.5z"/>
</svg>
